<svg width="106" height="71" viewBox="0 0 106 71" fill="none" xmlns="http://www.w3.org/2000/svg">
<path d="M46.6927 30.1158C43.763 25.8665 38.8133 22.8292 33.5162 23.1898C31.0303 23.3492 28.6438 24.2199 26.6435 25.6973C24.6666 27.2199 23.2254 29.327 22.5266 31.7163C21.6433 34.5656 21.6137 37.6079 21.7815 40.5598C21.8079 41.0203 22.5319 41.0489 22.5052 40.5851C22.2381 35.8813 22.4996 30.5003 26.1653 27.0413C29.7513 23.6581 35.2048 23.0582 39.6331 25.0404C42.2274 26.2275 44.4464 28.0983 46.0499 30.4504C46.3107 30.829 46.9551 30.4986 46.692 30.1165L46.6927 30.1158Z" fill="#E6E6E6"/>
<path d="M45.7113 25.2398L46.614 31.0508L47.0712 30.6262C45.6457 30.0136 44.0654 29.8524 42.545 30.1645C42.087 30.2576 42.2478 30.9607 42.7039 30.8684C44.1035 30.5869 45.5564 30.7436 46.8633 31.3169C47.1331 31.4341 47.3575 31.1294 47.3206 30.8924L46.4183 25.0811C46.3469 24.6216 45.6407 24.7831 45.7113 25.2398Z" fill="#E6E6E6"/>
<path d="M11.0493 57.3942C11.0493 57.7898 11.0137 58.1845 10.9429 58.5738C10.815 59.0713 10.6212 59.5497 10.3667 59.9964C9.87934 60.8583 9.3566 61.1803 8.92697 62.0241C8.8531 62.0811 8.7771 62.1322 8.69992 62.1823C8.54554 62.2814 8.52868 62.7668 8.3648 62.8505C8.3648 62.8505 8.36243 62.8505 8.36148 62.8528C8.31107 62.9383 8.28207 63.0345 8.27693 63.1335V63.1359C8.19428 63.6182 8.12255 64.5989 8.03943 65.1792C8.02827 65.2501 8.01805 65.3139 8.00713 65.3707C7.9791 65.5244 7.95013 65.6225 7.91759 65.6345C7.51812 65.7882 7.34759 65.5776 6.91059 65.6345C6.67571 65.6657 5.47657 65.8573 5.23266 65.8573C4.54035 65.8573 4.16557 65.6225 3.60531 65.3707C3.56612 65.3539 3.52693 65.3361 3.48656 65.3184C3.47136 65.3127 3.45877 65.3061 3.44428 65.3007C3.2835 65.2328 3.13126 63.5201 2.98021 62.872C2.97997 62.8715 2.97985 62.8709 2.97985 62.8703C2.97985 62.8698 2.97997 62.8692 2.98021 62.8687C2.94886 62.7339 2.91751 62.646 2.88521 62.6282L2.86146 62.615C2.76195 62.558 2.66457 62.4968 2.56934 62.4313C1.99316 61.4758 0.880237 60.5667 0.330663 59.0807C0.172803 58.5322 0.0909794 57.9648 0.0874634 57.3942C0.0874634 55.9471 0.664914 54.5592 1.69278 53.5359C2.72065 52.5127 4.11474 51.9378 5.56836 51.9378C7.02199 51.9378 8.41608 52.5127 9.44394 53.5359C10.4718 54.5592 11.0493 55.9471 11.0493 57.3942Z" fill="#67B4E4"/>
<path d="M10.9417 58.5747C10.8137 59.0721 10.6199 59.5503 10.3655 59.9969C9.87813 60.8587 9.35539 61.1808 8.92575 62.0246C8.64075 62.5869 8.39637 63.381 8.23012 64.72C8.22014 64.799 8.24128 64.8893 8.23012 64.9671C8.2047 65.1397 8.23582 65.1089 8.1306 65.2645C8.0831 65.2912 8.05342 65.2534 8.0375 65.1803C8.01272 64.995 8.01048 64.8073 8.03085 64.6214C8.06096 64.1196 8.14261 63.6222 8.27453 63.137V63.1347C8.30137 63.0377 8.33058 62.9441 8.35908 62.854C8.87707 61.2838 9.83158 60.5724 10.265 59.7505C12.5391 55.4429 8.33699 50.6361 3.7086 52.3072C3.46041 52.3976 3.47371 52.4491 3.46041 52.4564C3.12271 52.5701 2.79806 52.719 2.49189 52.9007C0.441075 54.2898 -0.294936 57.0384 0.630125 59.3039C1.13101 60.5298 2.18052 61.2214 2.8593 62.614C2.89999 62.6949 2.93918 62.7795 2.97686 62.868C2.97662 62.8685 2.9765 62.8691 2.9765 62.8696C2.9765 62.8702 2.97662 62.8708 2.97686 62.8713C3.29631 63.649 3.46839 64.4788 3.4844 65.3189C3.4844 65.334 3.48677 65.348 3.48677 65.3624C3.52691 65.3657 3.5661 65.3681 3.60433 65.3714C4.19808 65.4227 4.58307 65.5173 4.78233 65.4146L5.00154 65.4369C5.07422 65.5381 6.29639 65.4146 6.49138 65.4132H6.54173C7.03011 65.4256 7.51879 65.4118 8.00568 65.3719C8.02943 65.3695 8.05603 65.3662 8.08073 65.3629C8.11333 65.3704 8.14181 65.39 8.16032 65.4177C8.17883 65.4455 8.18596 65.4792 8.18024 65.5121C8.14008 65.7338 8.03688 65.9394 7.88289 66.1046C7.6537 66.2382 3.91665 66.306 3.5604 66.0556C3.45635 65.9832 3.38009 65.8777 3.34411 65.7565C3.30813 65.6353 3.31455 65.5055 3.36232 65.3884C3.35567 65.3572 3.2184 65.2683 3.21246 65.2392C3.14548 64.8609 3.22481 63.8998 2.7662 62.8162C2.70946 62.6835 2.64294 62.5552 2.56717 62.4322C1.991 61.4756 0.878312 60.5665 0.328975 59.0795C0.0408522 58.2813 -0.0599664 57.4279 0.0342382 56.5849C0.232075 54.4915 2.0461 52.4316 4.08171 51.9114C8.34198 50.8224 11.9394 54.6685 10.9417 58.5747Z" fill="#424143"/>
<path d="M7.93702 66.2188C8.29161 66.5545 8.10327 66.668 7.93702 67.0595C7.72873 67.0122 4.16196 67.2399 3.66511 67.0595C3.58566 67.0275 3.51568 66.9759 3.46174 66.9095C3.4078 66.8432 3.37167 66.7643 3.35674 66.6803C3.3418 66.5962 3.34856 66.5098 3.37637 66.4291C3.40418 66.3484 3.45213 66.276 3.51572 66.2188C4.98492 66.3821 6.46782 66.3821 7.93702 66.2188Z" fill="#424143"/>
<path d="M8.13584 67.2078C8.27549 67.5166 8.00831 67.7062 7.88742 67.9495L7.63828 67.9991L3.71479 67.9497C3.47847 67.9043 3.32861 67.575 3.26829 67.3563C3.26404 67.3269 3.26885 67.297 3.28209 67.2705C3.29532 67.244 3.31636 67.2221 3.34239 67.2078L3.66515 67.1089C4.96216 67.2134 6.26398 67.2464 7.56466 67.2078C7.65137 67.1575 7.74991 67.131 7.85025 67.131C7.95059 67.131 8.04913 67.1575 8.13584 67.2078Z" fill="#424143"/>
<path d="M4.91485 63.1843H4.81202V61.5106L2.91534 57.5112L3.00844 57.4675L4.91485 61.4869V63.1843Z" fill="white"/>
<path d="M6.51796 63.1872L6.43341 61.3262L6.43531 61.3191L7.44207 57.1989L7.54206 57.2226L6.53696 61.3366L6.62056 63.1829L6.51796 63.1872Z" fill="white"/>
<path d="M42.0463 49.0238H35.9693C35.8395 49.0241 35.7113 48.9951 35.5943 48.939C35.4773 48.8829 35.3746 48.8012 35.2939 48.6999C35.2142 48.6013 35.1579 48.4859 35.1294 48.3625C35.1008 48.2392 35.1007 48.111 35.1291 47.9875C35.7078 45.4452 35.6714 42.8024 35.0229 40.2768C34.9819 40.1105 34.9918 39.9358 35.0514 39.7752C35.1109 39.6146 35.2174 39.4754 35.3571 39.3755C38.4819 37.1383 40.9426 37.2031 42.6721 39.5689C42.75 39.6767 42.8018 39.801 42.8234 39.9321C43.2852 42.6964 43.3108 45.5155 42.8991 48.2876C42.8705 48.4922 42.7684 48.6796 42.6117 48.815C42.4549 48.9504 42.2542 49.0247 42.0467 49.0241L42.0463 49.0238Z" fill="#D6D6E3"/>
<path d="M40.162 42.9656H38.072C37.9564 42.9656 37.8456 42.9199 37.7638 42.8386C37.6821 42.7572 37.6362 42.6468 37.6362 42.5318C37.6362 42.4167 37.6821 42.3063 37.7638 42.225C37.8456 42.1436 37.9564 42.0979 38.072 42.0979H40.162C40.2776 42.0979 40.3884 42.1436 40.4701 42.225C40.5519 42.3063 40.5978 42.4167 40.5978 42.5318C40.5978 42.6468 40.5519 42.7572 40.4701 42.8386C40.3884 42.9199 40.2776 42.9656 40.162 42.9656Z" fill="white"/>
<path d="M40.162 44.4873H38.072C37.9564 44.4873 37.8456 44.4416 37.7638 44.3602C37.6821 44.2789 37.6362 44.1685 37.6362 44.0534C37.6362 43.9384 37.6821 43.828 37.7638 43.7466C37.8456 43.6653 37.9564 43.6196 38.072 43.6196H40.162C40.2776 43.6196 40.3884 43.6653 40.4701 43.7466C40.5519 43.828 40.5978 43.9384 40.5978 44.0534C40.5978 44.1685 40.5519 44.2789 40.4701 44.3602C40.3884 44.4416 40.2776 44.4873 40.162 44.4873Z" fill="white"/>
<path d="M40.162 46.009H38.072C37.9564 46.009 37.8456 45.9633 37.7638 45.8819C37.6821 45.8006 37.6362 45.6902 37.6362 45.5752C37.6362 45.4601 37.6821 45.3497 37.7638 45.2684C37.8456 45.187 37.9564 45.1413 38.072 45.1413H40.162C40.2776 45.1413 40.3884 45.187 40.4701 45.2684C40.5519 45.3497 40.5978 45.4601 40.5978 45.5752C40.5978 45.6902 40.5519 45.8006 40.4701 45.8819C40.3884 45.9633 40.2776 46.009 40.162 46.009Z" fill="white"/>
<path d="M99.9492 62.2464H80.5246C80.0039 62.2459 79.5048 62.0397 79.1367 61.6732C78.7685 61.3067 78.5615 60.8098 78.5609 60.2916V48.3808C78.5615 47.8625 78.7685 47.3656 79.1367 46.9991C79.5048 46.6326 80.0039 46.4265 80.5246 46.4259H99.9499C100.471 46.4265 100.97 46.6326 101.338 46.9991C101.706 47.3656 101.913 47.8625 101.914 48.3808V60.2916C101.913 60.8098 101.706 61.3067 101.338 61.6732C100.97 62.0397 100.471 62.2459 99.9499 62.2464H99.9492Z" fill="#E6E6E6"/>
<path d="M92.2312 60.7122H81.8892C81.4016 60.7117 80.9342 60.5186 80.5894 60.1754C80.2446 59.8322 80.0506 59.3669 80.05 58.8814V49.7909C80.0506 49.3055 80.2445 48.8402 80.5893 48.497C80.934 48.1538 81.4015 47.9607 81.889 47.9601H98.5836C99.0711 47.9607 99.5385 48.1538 99.8833 48.497C100.228 48.8402 100.422 49.3055 100.423 49.7909V52.5572C100.42 54.7193 99.5563 56.792 98.0206 58.3209C96.485 59.8497 94.4029 60.7097 92.2312 60.7122Z" fill="white"/>
<path d="M96.9185 52.9379H83.5548C83.4393 52.9379 83.3284 52.8921 83.2467 52.8108C83.1649 52.7294 83.119 52.6191 83.119 52.504C83.119 52.3889 83.1649 52.2786 83.2467 52.1972C83.3284 52.1158 83.4393 52.0701 83.5548 52.0701H96.9185C97.0341 52.0701 97.1449 52.1158 97.2266 52.1972C97.3084 52.2786 97.3543 52.3889 97.3543 52.504C97.3543 52.6191 97.3084 52.7294 97.2266 52.8108C97.1449 52.8921 97.0341 52.9379 96.9185 52.9379Z" fill="#67B4E4"/>
<path d="M85.6453 54.6523H83.5553C83.4397 54.6523 83.3288 54.6066 83.2471 54.5252C83.1654 54.4438 83.1194 54.3335 83.1194 54.2184C83.1194 54.1033 83.1654 53.993 83.2471 53.9116C83.3288 53.8303 83.4397 53.7845 83.5553 53.7845H85.6453C85.7608 53.7845 85.8717 53.8303 85.9534 53.9116C86.0352 53.993 86.0811 54.1033 86.0811 54.2184C86.0811 54.3335 86.0352 54.4438 85.9534 54.5252C85.8717 54.6066 85.7608 54.6523 85.6453 54.6523Z" fill="#67B4E4"/>
<path d="M89.3477 56.3669H83.5548C83.4393 56.3669 83.3284 56.3212 83.2467 56.2398C83.1649 56.1584 83.119 56.0481 83.119 55.933C83.119 55.8179 83.1649 55.7076 83.2467 55.6262C83.3284 55.5449 83.4393 55.4991 83.5548 55.4991H89.3477C89.4633 55.4991 89.5741 55.5449 89.6559 55.6262C89.7376 55.7076 89.7835 55.8179 89.7835 55.933C89.7835 56.0481 89.7376 56.1584 89.6559 56.2398C89.5741 56.3212 89.4633 56.3669 89.3477 56.3669Z" fill="#67B4E4"/>
<path d="M78.5602 50.1522C80.0149 50.1522 81.1941 48.9782 81.1941 47.5301C81.1941 46.0819 80.0149 44.908 78.5602 44.908C77.1056 44.908 75.9263 46.0819 75.9263 47.5301C75.9263 48.9782 77.1056 50.1522 78.5602 50.1522Z" fill="#424143"/>
<path d="M103.266 18.7785H85.7985C85.3304 18.7779 84.8816 18.5926 84.5506 18.263C84.2197 17.9335 84.0335 17.4868 84.0329 17.0208V6.30993C84.0335 5.84393 84.2197 5.39719 84.5506 5.06768C84.8816 4.73818 85.3304 4.55281 85.7985 4.55225H103.265C103.733 4.55281 104.182 4.73818 104.513 5.06768C104.844 5.39719 105.03 5.84393 105.031 6.30993V17.0206C105.03 17.4866 104.844 17.9333 104.513 18.2629C104.182 18.5924 103.734 18.7779 103.266 18.7785Z" fill="#E6E6E6"/>
<path d="M96.3256 17.3989H87.0263C86.5879 17.3984 86.1676 17.2248 85.8576 16.9162C85.5476 16.6076 85.3732 16.1892 85.3726 15.7528V7.57937C85.3731 7.14292 85.5475 6.72448 85.8575 6.41588C86.1676 6.10729 86.5879 5.93373 87.0263 5.93329H102.038C102.476 5.93373 102.896 6.10729 103.207 6.41588C103.517 6.72448 103.691 7.14292 103.691 7.57937V10.0669C103.689 12.011 102.913 13.8748 101.532 15.2495C100.151 16.6241 98.2787 17.3974 96.3259 17.3996L96.3256 17.3989Z" fill="white"/>
<path d="M100.54 10.4086H88.5228C88.4189 10.4086 88.3193 10.3675 88.2458 10.2943C88.1723 10.2212 88.131 10.1219 88.131 10.0185C88.131 9.91501 88.1723 9.81578 88.2458 9.74262C88.3193 9.66946 88.4189 9.62836 88.5228 9.62836H100.54C100.644 9.62836 100.744 9.66946 100.817 9.74262C100.891 9.81578 100.932 9.91501 100.932 10.0185C100.932 10.1219 100.891 10.2212 100.817 10.2943C100.744 10.3675 100.644 10.4086 100.54 10.4086Z" fill="#67B4E4"/>
<path d="M90.4036 11.9502H88.524C88.4201 11.9502 88.3204 11.9091 88.2469 11.8359C88.1734 11.7627 88.1321 11.6635 88.1321 11.56C88.1321 11.4566 88.1734 11.3573 88.2469 11.2842C88.3204 11.211 88.4201 11.1699 88.524 11.1699H90.4036C90.5075 11.1699 90.6072 11.211 90.6807 11.2842C90.7542 11.3573 90.7955 11.4566 90.7955 11.56C90.7955 11.6635 90.7542 11.7627 90.6807 11.8359C90.6072 11.9091 90.5075 11.9502 90.4036 11.9502Z" fill="#67B4E4"/>
<path d="M93.7326 13.4917H88.5238C88.4198 13.4917 88.3202 13.4506 88.2467 13.3775C88.1732 13.3043 88.1319 13.2051 88.1319 13.1016C88.1319 12.9981 88.1732 12.8989 88.2467 12.8257C88.3202 12.7526 88.4198 12.7115 88.5238 12.7115H93.7326C93.8366 12.7115 93.9362 12.7526 94.0097 12.8257C94.0832 12.8989 94.1245 12.9981 94.1245 13.1016C94.1245 13.2051 94.0832 13.3043 94.0097 13.3775C93.9362 13.4506 93.8366 13.4917 93.7326 13.4917Z" fill="#67B4E4"/>
<path d="M86.2699 20.1626C87.0379 18.9327 86.6589 17.3159 85.4235 16.5514C84.1881 15.7869 82.564 16.1641 81.7961 17.394C81.0281 18.6239 81.4071 20.2407 82.6425 21.0052C83.8779 21.7697 85.5019 21.3925 86.2699 20.1626Z" fill="#424143"/>
<path d="M37.4604 27.9102H31.3837C31.2539 27.9105 31.1257 27.8815 31.0087 27.8254C30.8917 27.7693 30.789 27.6875 30.7083 27.5863C30.6286 27.4876 30.5723 27.3723 30.5438 27.2489C30.5152 27.1255 30.5151 26.9973 30.5435 26.8739C31.1187 24.3463 31.0862 21.7192 30.4485 19.2065C30.4032 19.0287 30.4171 18.8411 30.4879 18.6717C30.5588 18.5024 30.6828 18.3605 30.8415 18.2673C33.0427 16.9906 35.3934 17.0305 37.828 18.3834C37.9433 18.4459 38.0426 18.5338 38.1186 18.6403C38.1945 18.7469 38.245 18.8692 38.2662 18.9982C38.6999 21.705 38.716 24.4618 38.3137 27.1735C38.2851 27.3781 38.183 27.5655 38.0263 27.7009C37.8696 27.8363 37.6689 27.9106 37.4613 27.91L37.4604 27.9102Z" fill="#D6D6E3"/>
<path d="M34.6211 22.0416H32.5311C32.4155 22.0416 32.3047 21.9958 32.2229 21.9145C32.1412 21.8331 32.0953 21.7228 32.0953 21.6077C32.0953 21.4926 32.1412 21.3823 32.2229 21.3009C32.3047 21.2195 32.4155 21.1738 32.5311 21.1738H34.6211C34.7367 21.1738 34.8475 21.2195 34.9293 21.3009C35.011 21.3823 35.0569 21.4926 35.0569 21.6077C35.0569 21.7228 35.011 21.8331 34.9293 21.9145C34.8475 21.9958 34.7367 22.0416 34.6211 22.0416Z" fill="white"/>
<path d="M37.177 23.756H32.5306C32.415 23.756 32.3042 23.7103 32.2224 23.6289C32.1407 23.5475 32.0948 23.4372 32.0948 23.3221C32.0948 23.207 32.1407 23.0967 32.2224 23.0153C32.3042 22.934 32.415 22.8882 32.5306 22.8882H37.177C37.2926 22.8882 37.4035 22.934 37.4852 23.0153C37.5669 23.0967 37.6129 23.207 37.6129 23.3221C37.6129 23.4372 37.5669 23.5475 37.4852 23.6289C37.4035 23.7103 37.2926 23.756 37.177 23.756Z" fill="white"/>
<path d="M24.4634 44.35C25.2314 43.1201 24.8525 41.5033 23.6171 40.7388C22.3816 39.9742 20.7576 40.3515 19.9896 41.5814C19.2217 42.8113 19.6006 44.4281 20.836 45.1926C22.0714 45.9571 23.6955 45.5799 24.4634 44.35Z" fill="#424143"/>
<path d="M55.5168 40.1409H49.4401C49.3103 40.1412 49.1821 40.1122 49.0651 40.0561C48.9481 40 48.8454 39.9182 48.7647 39.817C48.6849 39.7183 48.6287 39.603 48.6002 39.4796C48.5716 39.3562 48.5715 39.228 48.5998 39.1046C49.174 36.5814 49.1426 33.959 48.5082 31.4501C48.4634 31.27 48.4788 31.0803 48.5521 30.9096C48.6253 30.739 48.7524 30.5967 48.9141 30.5044C51.8662 28.8221 54.2037 28.8685 56.0602 30.6463C56.1903 30.7731 56.276 30.9382 56.3046 31.1172C56.7557 33.8601 56.7775 36.656 56.3692 39.4056C56.3406 39.6102 56.2385 39.7976 56.0817 39.933C55.925 40.0684 55.7243 40.1427 55.5168 40.1421V40.1409Z" fill="#67B4E4"/>
<path d="M53.0596 34.4621H50.9696C50.854 34.4621 50.7432 34.4164 50.6615 34.335C50.5797 34.2536 50.5338 34.1433 50.5338 34.0282C50.5338 33.9132 50.5797 33.8028 50.6615 33.7214C50.7432 33.6401 50.854 33.5944 50.9696 33.5944H53.0596C53.1752 33.5944 53.2861 33.6401 53.3678 33.7214C53.4495 33.8028 53.4954 33.9132 53.4954 34.0282C53.4954 34.1433 53.4495 34.2536 53.3678 34.335C53.2861 34.4164 53.1752 34.4621 53.0596 34.4621Z" fill="white"/>
<path d="M55.6156 36.1765H50.9691C50.8536 36.1765 50.7427 36.1308 50.661 36.0494C50.5792 35.9681 50.5333 35.8577 50.5333 35.7426C50.5333 35.6276 50.5792 35.5172 50.661 35.4359C50.7427 35.3545 50.8536 35.3088 50.9691 35.3088H55.6156C55.7312 35.3088 55.842 35.3545 55.9237 35.4359C56.0055 35.5172 56.0514 35.6276 56.0514 35.7426C56.0514 35.8577 56.0055 35.9681 55.9237 36.0494C55.842 36.1308 55.7312 36.1765 55.6156 36.1765Z" fill="white"/>
<path d="M75.1006 51.6638C74.2878 56.8005 70.4788 61.3698 64.2818 62.6787C61.2171 63.2972 58.0506 63.1856 55.0406 62.353C51.9639 61.4942 49.1506 59.888 46.8524 57.6782C44.1813 55.1305 42.3598 52.121 40.8146 49.1413C40.5739 48.6763 41.3747 48.42 41.6177 48.8886C44.0796 53.638 47.5365 58.8928 53.7111 61.1705C59.7511 63.3984 66.2663 62.2777 70.1056 58.9187C72.293 57.0109 73.7356 54.3957 74.1788 51.5347C74.2512 51.0771 75.1736 51.2022 75.1006 51.6638Z" fill="#E6E6E6"/>
<path d="M76.1624 56.5747L74.7184 50.8729L75.3056 51.0853C74.233 52.2054 72.8413 52.9703 71.3193 53.2761C70.8612 53.3691 70.7341 52.6589 71.1905 52.5663C72.5891 52.2794 73.8652 51.5683 74.8438 50.5306C75.0463 50.3175 75.3722 50.5104 75.4309 50.743L76.8751 56.4449C76.9893 56.8958 76.2759 57.0226 76.1624 56.5747Z" fill="#E6E6E6"/>
<path d="M58.3369 70.4527H52.26C52.1301 70.453 52.0019 70.424 51.8849 70.3679C51.7679 70.3118 51.6652 70.2301 51.5845 70.1288C51.5048 70.0301 51.4486 69.9148 51.42 69.7914C51.3915 69.668 51.3914 69.5398 51.4197 69.4164C51.9963 66.8831 51.9622 64.2499 51.3204 61.7322C51.2766 61.5582 51.289 61.375 51.3559 61.2085C51.4229 61.042 51.541 60.9008 51.6933 60.8051C53.7956 59.5085 56.0847 59.5492 58.6919 60.929C58.8105 60.9911 58.913 61.0797 58.9914 61.1878C59.0699 61.2958 59.1223 61.4205 59.1444 61.552C59.5761 64.2556 59.5913 67.0088 59.1893 69.7169C59.1607 69.9215 59.0585 70.1089 58.9018 70.2443C58.7451 70.3797 58.5444 70.454 58.3369 70.4534V70.4527Z" fill="#67B4E4"/>
<path d="M55.4978 64.7749H53.4078C53.2922 64.7749 53.1814 64.7292 53.0996 64.6478C53.0179 64.5665 52.972 64.4561 52.972 64.341C52.972 64.226 53.0179 64.1156 53.0996 64.0342C53.1814 63.9529 53.2922 63.9072 53.4078 63.9072H55.4978C55.6134 63.9072 55.7242 63.9529 55.806 64.0342C55.8877 64.1156 55.9336 64.226 55.9336 64.341C55.9336 64.4561 55.8877 64.5665 55.806 64.6478C55.7242 64.7292 55.6134 64.7749 55.4978 64.7749Z" fill="white"/>
<path d="M58.0537 66.4895H53.4073C53.2917 66.4895 53.1809 66.4438 53.0991 66.3624C53.0174 66.2811 52.9715 66.1707 52.9715 66.0556C52.9715 65.9406 53.0174 65.8302 53.0991 65.7488C53.1809 65.6675 53.2917 65.6218 53.4073 65.6218H58.0537C58.1693 65.6218 58.2802 65.6675 58.3619 65.7488C58.4436 65.8302 58.4896 65.9406 58.4896 66.0556C58.4896 66.1707 58.4436 66.2811 58.3619 66.3624C58.2802 66.4438 58.1693 66.4895 58.0537 66.4895Z" fill="white"/>
<path d="M78.6855 14.6027C75.7558 10.3533 70.8061 7.31609 65.509 7.67666C63.0231 7.83605 60.6366 8.70676 58.6363 10.1841C56.6594 11.7067 55.2181 13.8139 54.5194 16.2031C53.6361 19.0524 53.6065 22.0948 53.7743 25.0467C53.8007 25.5072 54.5247 25.5358 54.498 25.072C54.2309 20.3682 54.4924 14.9871 58.1581 11.5282C61.7441 8.14494 67.1976 7.54508 71.6259 9.52724C74.2202 10.7144 76.4392 12.5852 78.0427 14.9373C78.3035 15.3159 78.9479 14.9854 78.6848 14.6033L78.6855 14.6027Z" fill="#E6E6E6"/>
<path d="M77.7042 9.72669L78.6068 15.5376L79.0641 15.1131C77.6385 14.5005 76.0583 14.3393 74.5378 14.6514C74.0799 14.7445 74.2407 15.4476 74.6968 15.3553C76.0964 15.0738 77.5493 15.2304 78.8561 15.8038C79.126 15.921 79.3503 15.6163 79.3134 15.3793L78.4111 9.56802C78.3398 9.10849 77.6336 9.27003 77.7042 9.72669Z" fill="#E6E6E6"/>
<path d="M64.2249 14.4283L58.1533 14.6787C58.0235 14.6843 57.8941 14.6607 57.7748 14.6095C57.6555 14.5582 57.5494 14.4808 57.4645 14.3829C57.3808 14.2876 57.3198 14.1746 57.2861 14.0525C57.2525 13.9304 57.247 13.8023 57.2702 13.6778C57.7362 11.1485 57.6005 8.54567 56.8739 6.07799C56.8182 5.88944 56.8298 5.68752 56.9067 5.50651C56.9836 5.3255 57.121 5.17656 57.2957 5.08495C59.7825 3.79873 62.1129 3.73347 64.2211 4.89084C64.3317 4.9506 64.4278 5.03365 64.5028 5.13419C64.5777 5.23472 64.6298 5.35033 64.6553 5.47295C65.2041 8.16564 65.3357 10.9261 65.0455 13.6584C65.0252 13.8638 64.9309 14.0548 64.7801 14.1963C64.6292 14.3379 64.432 14.4202 64.2249 14.4283Z" fill="#D6D6E3"/>
<path d="M63.9682 10.4722L59.3258 10.6637C59.2686 10.6661 59.2115 10.6572 59.1577 10.6376C59.104 10.618 59.0547 10.588 59.0126 10.5494C58.9705 10.5108 58.9364 10.4644 58.9123 10.4127C58.8882 10.361 58.8746 10.3051 58.8723 10.2482C58.8699 10.1912 58.8788 10.1344 58.8985 10.0809C58.9182 10.0274 58.9483 9.97829 58.987 9.93636C59.0258 9.89444 59.0725 9.86052 59.1244 9.83656C59.1763 9.81259 59.2325 9.79904 59.2897 9.79668L63.9321 9.60517C63.9893 9.60281 64.0463 9.61168 64.1001 9.63129C64.1538 9.6509 64.2032 9.68085 64.2453 9.71943C64.2874 9.75802 64.3215 9.80449 64.3455 9.85618C64.3696 9.90787 64.3832 9.96378 64.3856 10.0207C64.3879 10.0776 64.379 10.1345 64.3593 10.188C64.3396 10.2415 64.3096 10.2906 64.2708 10.3325C64.232 10.3744 64.1854 10.4083 64.1334 10.4323C64.0815 10.4563 64.0254 10.4698 63.9682 10.4722Z" fill="white"/>
<path d="M63.905 8.95168L59.2626 9.1432C59.2054 9.14556 59.1483 9.13668 59.0946 9.11707C59.0408 9.09747 58.9915 9.06752 58.9494 9.02893C58.8643 8.951 58.8139 8.84263 58.8091 8.72765C58.8067 8.67073 58.8156 8.61389 58.8353 8.56039C58.855 8.50689 58.8851 8.45778 58.9239 8.41586C59.0021 8.33119 59.111 8.28095 59.2265 8.27618L63.8689 8.08466C63.9844 8.0799 64.0971 8.121 64.1821 8.19893C64.2671 8.27686 64.3176 8.38523 64.3224 8.5002C64.3272 8.61518 64.2859 8.72734 64.2076 8.812C64.1293 8.89667 64.0205 8.94692 63.905 8.95168Z" fill="white"/>
</svg>
