<svg width="94" height="63" viewBox="0 0 94 63" fill="none" xmlns="http://www.w3.org/2000/svg">
<g clip-path="url(#clip0_27_185)">
<path d="M22.5947 45.1315C24.4627 45.1315 25.9771 43.604 25.9771 41.7199C25.9771 39.8358 24.4627 38.3083 22.5947 38.3083C20.7266 38.3083 19.2122 39.8358 19.2122 41.7199C19.2122 43.604 20.7266 45.1315 22.5947 45.1315Z" fill="#F2F2F2"/>
<path d="M19.1568 46.9509C20.1365 48.1222 21.1964 56.5665 22.3272 57.5877L75.3838 57.7014C76.5147 56.6802 77.5745 48.236 78.5543 47.0646L19.1568 46.9509Z" fill="#E6E6E6"/>
<path d="M35.6956 37.0319V48.6949H43.7965V37.0319C43.7968 36.8597 43.6857 36.7075 43.5226 36.6566C43.4851 36.6442 43.4459 36.638 43.4064 36.6384H36.0869C35.8712 36.638 35.6961 36.814 35.6957 37.0315L35.6956 37.0319ZM38.8571 41.0394C38.8615 40.5576 39.2522 40.1707 39.7298 40.1752C40.2012 40.1796 40.5823 40.5639 40.5866 41.0394V42.3926C40.5844 42.8743 40.1953 43.263 39.7177 43.2607C39.2433 43.2584 38.8593 42.8711 38.8571 42.3926V41.0394Z" fill="#3F3D56"/>
<path d="M22.9518 19.4601V40.755C22.9523 41.3201 23.4063 41.7781 23.9666 41.7785H55.2539C55.8142 41.7781 56.2682 41.3201 56.2687 40.755V19.4601C56.2673 18.8956 55.8136 18.4385 55.2539 18.4378H23.9666C23.4069 18.4385 22.9532 18.8956 22.9518 19.4601Z" fill="#3F3D56"/>
<path d="M23.6858 19.7251V40.4924C23.6863 40.7943 23.9288 41.0388 24.2281 41.0394H54.9935C55.2928 41.0388 55.5353 40.7943 55.5358 40.4924V19.7251C55.5358 19.4229 55.2932 19.1777 54.9935 19.177H24.2281C23.9285 19.1777 23.6858 19.4229 23.6858 19.7251Z" fill="#67B4E4"/>
<path d="M29.9591 49.9321C30.0225 50.0124 30.1189 50.0589 30.2206 50.0584H48.524C48.71 50.0581 48.8606 49.9058 48.8604 49.7182C48.8604 49.695 48.858 49.6717 48.8532 49.649L48.5691 48.2878C48.5452 48.175 48.4663 48.0821 48.3594 48.041C48.3213 48.0259 48.2808 48.0182 48.2399 48.0182H30.5036C30.4627 48.0182 30.4222 48.0259 30.3841 48.041C30.2773 48.0821 30.1983 48.175 30.1744 48.2878L29.8903 49.649C29.8698 49.749 29.8951 49.853 29.9591 49.9321Z" fill="#3F3D56"/>
<path d="M25.2173 22.0378H54.0043C54.0675 22.0364 54.1177 21.9835 54.1163 21.9198C54.115 21.858 54.0656 21.8082 54.0043 21.8068H25.2173C25.1541 21.8082 25.1039 21.861 25.1053 21.9248C25.1066 21.9866 25.156 22.0364 25.2173 22.0378Z" fill="#3F3D56"/>
<path d="M89.7404 44.6C89.7381 44.5943 89.737 44.5897 89.7347 44.5852C89.6912 44.4669 89.6404 44.3514 89.5825 44.2395C89.2544 43.6174 89.6017 42.6622 89.2319 41.6069C88.6343 39.8966 87.906 38.8879 86.8383 37.9838C86.8067 37.9565 86.7751 37.9304 86.7424 37.9031L86.7413 37.9019C86.0287 37.3117 85.1696 36.7602 84.103 36.0734C83.8809 35.9301 83.1131 36.344 83.1311 35.6344C83.1514 34.8463 83.1728 34.0298 82.7895 33.5204L82.7647 33.4874L82.7252 33.4772C81.4109 33.215 80.0704 33.1108 78.7317 33.1667H78.7306C78.1622 33.188 77.5978 33.2715 77.0473 33.4158C77.0067 33.4271 76.9661 33.4385 76.9266 33.4521C76.8962 33.4601 76.8658 33.4703 76.8353 33.4806L76.8105 33.4897L76.7913 33.5079C76.4204 33.882 76.3347 34.5529 76.2941 35.2523V35.2534C76.2863 35.3808 76.2795 35.5082 76.2738 35.6355C76.2423 36.3156 74.6153 36.8648 73.9952 37.173C72.8305 37.753 73.0062 39.1044 72.9927 39.1044C72.9927 39.1044 71.0345 43.1591 71.0108 47.2655C71.0097 47.4941 71.0082 47.7238 71.0063 47.9546C70.9928 49.8674 70.9567 51.8131 70.8146 53.586C70.7526 54.3479 70.6726 55.0768 70.5655 55.758C70.0445 59.0752 67.6848 56.3209 66.5562 58.5282C66.5932 58.7452 66.6557 58.9571 66.7422 59.1593C66.8718 59.2366 67.0049 59.3117 67.1368 59.3868C67.722 59.7154 68.318 60.0221 68.925 60.3067C68.9588 60.3227 68.9926 60.3386 69.0264 60.3534C70.1397 60.8729 71.2872 61.3144 72.4607 61.6748C72.6896 61.7453 72.9185 61.8124 73.1496 61.8761C75.1941 62.4453 77.2993 62.7634 79.4195 62.8233C79.4281 62.8224 79.4368 62.822 79.4454 62.8222C81.9528 62.7523 84.4438 62.3901 86.8687 61.743C86.9025 61.7339 86.9363 61.7248 86.9702 61.7157C87.1291 61.6725 87.287 61.6293 87.4448 61.5838C88.8404 61.1833 90.2077 60.6886 91.5376 60.1032C91.5389 60.1531 91.5438 60.2029 91.5522 60.2522C91.5534 60.2682 91.5556 60.2842 91.559 60.2999C91.5612 60.2817 91.5635 60.2635 91.5646 60.2453C91.5714 60.1919 91.577 60.1373 91.5826 60.0827C92.2727 53.296 90.8397 47.5339 89.7404 44.6Z" fill="#CCCCCC"/>
<path d="M79.7595 32.5774C83.3755 32.5774 86.3069 29.6208 86.3069 25.9736C86.3069 22.3265 83.3755 19.3699 79.7595 19.3699C76.1436 19.3699 73.2122 22.3265 73.2122 25.9736C73.2122 29.6208 76.1436 32.5774 79.7595 32.5774Z" fill="#FFB6B6"/>
<path d="M80.2442 32.6962C81.2424 32.5164 82.2236 32.2508 83.177 31.9025C84.1131 31.511 85.9823 29.4709 86.4029 28.3817C86.7153 27.5724 86.7868 26.3904 86.7918 25.5414C86.8128 23.2679 85.8771 21.092 84.217 19.5539C83.8956 19.2314 83.4939 19.0025 83.0542 18.8915C83.0157 18.8844 82.9766 18.8791 82.9374 18.8758C82.3201 18.8353 81.7289 18.6097 81.2397 18.2279C81.1441 18.15 81.0431 18.0792 80.9374 18.0159C80.4106 17.7198 79.8218 17.5535 79.2191 17.5308C78.2402 17.4625 76.9418 17.9763 75.3603 19.0589C74.5657 19.6027 73.5917 19.6538 72.8317 19.6375C72.7454 19.6377 72.6655 19.684 72.6221 19.7593C72.3686 20.114 71.9914 20.3588 71.5662 20.4445C71.3078 20.5072 71.1047 20.9249 70.8658 21.4645C70.8116 21.587 70.7484 21.7299 70.7001 21.8188L70.6632 21.6736L70.5475 21.8664C69.9519 22.8587 70.2665 24.15 71.2503 24.7508C71.5147 24.9122 71.8114 25.0123 72.1189 25.0437C72.3947 25.0625 72.6716 25.0529 72.9454 25.015C73.1124 24.9977 73.2851 24.9797 73.4532 24.9763C74.5574 24.9869 75.5749 25.582 76.1326 26.5432C76.3645 26.9363 76.8683 27.0653 77.258 26.8315C77.3192 26.7948 77.3754 26.7502 77.4252 26.6988C77.7169 26.3612 78.154 26.1889 78.5954 26.2376C78.7918 26.3022 78.9602 26.4329 79.0724 26.6078C79.2051 26.8012 79.3918 26.9504 79.6088 27.0363C80.3357 27.25 80.6751 28.7627 80.6829 30.0778C80.6904 31.3454 80.4092 32.3187 79.9991 32.4447C79.6834 32.5416 79.651 32.572 79.6388 32.634L79.6279 32.6896L79.6734 32.7306C79.8639 32.7607 80.0586 32.749 80.2442 32.6962Z" fill="#2F2E41"/>
<path d="M57.0716 53.1129C58.3252 53.1129 59.3415 52.7857 59.3415 52.3822C59.3415 51.9787 58.3252 51.6516 57.0716 51.6516C55.818 51.6516 54.8018 51.9787 54.8018 52.3822C54.8018 52.7857 55.818 53.1129 57.0716 53.1129Z" fill="#3F3D56"/>
<path d="M57.0716 52.6258C58.3252 52.6258 59.3415 52.2986 59.3415 51.8951C59.3415 51.4916 58.3252 51.1644 57.0716 51.1644C55.818 51.1644 54.8018 51.4916 54.8018 51.8951C54.8018 52.2986 55.818 52.6258 57.0716 52.6258Z" fill="#3F3D56"/>
<path d="M56.6725 52.3848L57.0108 52.3797L56.9175 46.0093C56.8898 43.894 57.9792 41.9234 59.7778 40.8351L66.2336 36.943L66.0601 36.6501L59.6042 40.5424C57.7021 41.6933 56.55 43.7774 56.5792 46.0144L56.6725 52.3848Z" fill="#3F3D56"/>
<path d="M55.3292 43.7307C55.6137 44.7803 56.6879 45.3985 57.7284 45.1116C57.8394 45.081 57.9474 45.0405 58.0513 44.9908L62.9201 49.9806L63.6734 46.4228L58.9345 42.2298C58.4054 41.2748 57.209 40.9333 56.2622 41.4669C55.4699 41.9134 55.0842 42.8494 55.3292 43.7307Z" fill="#FFB6B6"/>
<path d="M80.761 38.5204L80.7301 38.503L77.18 37.2717C76.2683 36.9554 75.2658 37.0493 74.4275 37.5295C74.235 37.6393 74.0541 37.7684 73.8873 37.9148L73.8862 37.9149C73.3299 38.3996 72.9466 39.055 72.795 39.7805L70.9303 48.7094L67.1813 46.6715L65.6535 46.3035L64.2629 44.8959L60.7902 43.4698L60.5974 43.7018L58.8501 45.8084L58.7128 45.974L62.5603 51.5882L64.2849 51.7775L64.7681 52.6444L64.8022 52.6602L66.216 53.3029L72.2459 56.043L75.166 53.789L75.6229 53.4352C79.4006 49.9051 81.1665 47.0654 81.9038 44.9025C82.294 43.76 82.3968 42.808 82.3581 42.0406C82.2381 39.6687 80.8209 38.5658 80.761 38.5204Z" fill="#CCCCCC"/>
<path d="M84.0983 40.6964H82.4071C77.519 40.6964 73.5564 44.6931 73.5564 49.6233C71.9788 51.5911 72.0754 54.0621 73.5564 56.949L68.7088 54.9107C68.0185 54.6222 67.227 54.9527 66.941 55.649C66.6558 56.3431 66.9806 57.1391 67.6676 57.4298L73.5564 59.906V60.367C73.5564 61.813 74.7186 62.9852 76.1523 62.9852H90.3531C91.7868 62.9852 92.949 61.813 92.949 60.367C94.0018 56.4713 94.6607 52.6932 92.949 49.6233C92.949 44.6931 88.9864 40.6964 84.0983 40.6964Z" fill="#3F3D56"/>
<path d="M32.2075 27.964L35.5739 28.0146C35.6673 28.0113 35.7404 27.9323 35.7371 27.8381C35.734 27.7484 35.6627 27.6765 35.5739 27.6734L32.2075 27.6228C32.1141 27.6261 32.041 27.7051 32.0443 27.7993C32.0473 27.8889 32.1187 27.9609 32.2075 27.964Z" fill="#67B4E4"/>
<path d="M36.2632 31.5342C36.6616 31.8443 37.3019 31.573 37.4131 31.094C37.5427 30.5358 37.0593 30.0104 36.5107 30.0225C35.9006 30.036 35.4694 30.5535 35.4033 31.136C35.3516 31.6731 35.5688 32.2009 35.9824 32.5433C36.4223 32.9315 37.0249 33.0735 37.5899 32.922C37.7982 32.8601 37.7095 32.5307 37.4999 32.593C36.7574 32.7861 35.9957 32.3558 35.7711 31.6163C35.6649 31.2139 35.7652 30.7114 36.137 30.4812C36.4712 30.2743 36.9444 30.3494 37.0718 30.764C37.1474 30.9823 37.0332 31.2212 36.8167 31.2975C36.6875 31.343 36.5443 31.3214 36.434 31.2396C36.3532 31.1927 36.2501 31.22 36.2026 31.3008C36.1578 31.3825 36.1845 31.4852 36.2632 31.5342Z" fill="#67B4E4"/>
<path d="M39.7143 29.9947C39.3747 30.3781 39.0706 30.7921 38.8058 31.2314L38.4105 30.1777C38.3343 29.9743 38.0071 30.0624 38.0844 30.2684C38.2524 30.7162 38.4204 31.1641 38.5884 31.612C38.3949 31.9731 38.2276 32.3478 38.0879 32.7332C38.0131 32.9397 38.3398 33.0288 38.4141 32.8239C38.5115 32.5565 38.6232 32.2945 38.7486 32.0392C38.9025 32.4495 39.0564 32.8598 39.2103 33.2701C39.2866 33.4735 39.6137 33.3853 39.5364 33.1794C39.3438 32.666 39.1513 32.1526 38.9587 31.6391C39.2393 31.1367 39.5728 30.6662 39.9534 30.2359C40.0982 30.0727 39.8598 29.8306 39.7143 29.9947Z" fill="#67B4E4"/>
<path d="M33.7079 27.7973L33.9444 32.9108C33.9545 33.1294 34.2928 33.1307 34.2827 32.9108L34.0462 27.7973C34.0361 27.5787 33.6978 27.5774 33.7079 27.7973Z" fill="#67B4E4"/>
<path d="M8.86999 46.3505C8.7604 46.351 8.65107 46.3614 8.54332 46.3816L6.75047 34.934L8.54658 23.9135C8.79315 22.4009 7.77726 20.9731 6.27754 20.7244C4.92413 20.4999 3.61348 21.315 3.20439 22.6354C2.53108 24.8085 2.19788 27.0743 2.21683 29.351L2.27947 36.8667L7.05908 48.4093C7.17884 49.4184 8.08693 50.1384 9.08735 50.0176C10.0878 49.8968 10.8017 48.9809 10.6819 47.9719C10.5721 47.0466 9.79388 46.3503 8.86999 46.3505Z" fill="#FFB8B8"/>
<path d="M5.58651 19.9928C3.19765 19.9968 1.26211 21.9491 1.25815 24.3585L2.13758 33.3195L2.2165 34.1223L2.25709 34.1246L5.34524 34.2793H5.34636L6.84477 34.3543L7.10184 34.3668L7.39611 33.3195L9.91488 24.3585C9.91232 21.9485 7.97595 19.9954 5.58651 19.9928Z" fill="#E6E6E6"/>
<path d="M5.71953 63L4.29892 58.6036C4.29892 58.6036 1.69445 55.9324 5.03516 48.841C5.10844 48.684 5.1851 48.5259 5.26516 48.3644C5.40496 48.0812 5.55454 47.7909 5.71389 47.4933C5.95517 47.0612 6.19983 46.6143 6.47606 46.1526L6.72862 46.1981L6.96764 46.2402L7.78506 46.3858H7.78619L19.6235 48.4896C19.6235 48.4896 19.4059 49.4697 19.2887 50.5216C19.1951 51.3849 19.1646 52.2582 19.3856 52.6278C19.8637 53.4533 19.2176 55.6845 19.2176 55.6845C19.2176 55.6845 19.2537 55.9006 19.3146 56.2826V56.2839C19.3743 56.6557 19.4578 57.1833 19.5525 57.8224C19.557 57.8656 19.5626 57.9088 19.5694 57.9521C19.7194 58.9869 19.8986 60.2935 20.0587 61.6979C20.1083 62.1244 20.1557 62.5599 20.2008 63L5.71953 63Z" fill="#2F2E41"/>
<path d="M2.34551 22.3107C2.64277 21.4839 3.33725 20.8668 4.18797 20.6735C4.80848 20.4956 5.45428 20.4244 6.09825 20.463C7.98339 20.5379 7.50806 16.2781 9.37473 16.5539C9.37473 16.5539 11.1317 15.9215 12.5064 17.0804C13.7552 18.1331 14.6161 20.9964 14.9366 20.8335C15.0047 20.7996 15.1683 20.8031 15.3972 20.8338C18.0719 21.1919 19.9967 23.6119 19.8377 26.3287L19.7019 28.651C19.7019 28.651 20.6622 30.1092 19.2687 32.6835L17.5129 40.5975C17.5129 40.5975 21.9057 49.3729 19.8806 51.1733C17.8555 52.9737 9.91554 50.1664 9.91554 50.1664C9.91554 50.1664 5.46297 48.7781 4.52391 48.1764C2.54033 46.9054 5.07553 44.0074 6.64298 44.1439C6.7273 43.8068 6.61628 43.4506 6.35593 43.2227C5.92271 42.9437 6.40811 42.312 6.44465 42.2541C6.40288 42.2961 6.07406 42.6436 5.82354 41.9119C5.57302 41.1801 6.34548 40.2588 6.34548 40.2588L4.16378 35.5209L2.44662 31.778L2.23783 31.3463L2.59601 29.0175L2.56249 28.9475C1.79926 27.3426 1.63035 25.5152 2.08627 23.7956C2.25167 23.1633 2.37071 22.5871 2.34551 22.3107Z" fill="#E6E6E6"/>
<path d="M20.2008 63H19.4476C19.6562 62.5485 19.8625 62.1107 20.0587 61.6979C20.1083 62.1243 20.1557 62.5599 20.2008 63Z" fill="#2F2E41"/>
<path d="M34.9844 36.5098C34.9177 36.5974 34.8589 36.691 34.8087 36.7893L24.737 31.2105L17.1974 23.0311C16.1625 21.9084 14.4212 21.8445 13.3081 22.8882C12.3037 23.8302 12.1402 25.3743 12.9248 26.5089C14.2161 28.3763 15.7883 30.0292 17.5847 31.4079L23.5148 35.9593L35.4896 39.2144C36.354 39.7366 37.4744 39.4533 37.9922 38.5815C38.51 37.7097 38.2291 36.5796 37.3647 36.0574C36.5722 35.5785 35.5498 35.7728 34.9844 36.5098Z" fill="#FFB8B8"/>
<path d="M21.3514 34.2985L24.3413 30.7809L24.5078 30.5842L18.3836 22.2133C18.1189 22.0054 17.8306 21.8301 17.5248 21.691L17.524 21.6902C15.3481 20.6928 12.7825 21.6632 11.7935 23.8578C10.9633 25.7001 11.4975 27.8764 13.084 29.1153L14.8713 30.2458L21.3247 34.3294L21.3514 34.2985Z" fill="#E6E6E6"/>
<path d="M15.9852 12.7262C14.4587 15.5416 10.9583 16.5758 8.16687 15.0361C5.37544 13.4965 4.35006 9.96589 5.87661 7.15042C7.40315 4.33495 10.9036 3.30074 13.695 4.84043C14.8675 5.48719 15.7807 6.52501 16.278 7.77615C16.3043 7.84265 16.3281 7.90914 16.3518 7.9783C16.9088 9.54091 16.7754 11.2693 15.9852 12.7262Z" fill="#FFB6B6"/>
<path d="M16.8133 7.97834C16.5654 7.27879 16.6736 7.64319 16.423 6.94631C16.5865 7.5634 16.3281 7.90918 16.3518 7.97834H9.49258V3.95663C11.5021 3.15334 13.4668 2.46976 14.6535 3.95663C16.8556 3.95672 18.6408 5.75725 18.6409 7.97834L16.8133 7.97834Z" fill="#2F2E41"/>
<path d="M14.3819 19.1577C14.3766 19.0832 14.3687 19.0061 14.3581 18.9316C14.266 18.3852 14.1166 17.8503 13.9124 17.3357C13.7146 16.7745 13.5142 16.2106 13.3138 15.6493C13.5719 16.6681 13.4932 17.744 13.0896 18.7135C11.9319 17.8038 12.6624 15.7238 11.1487 15.7238C7.50944 15.7238 3.76468 12.7474 3.76468 9.07416C3.76468 5.40354 5.32587 2.65857 8.96513 2.65857C12.6071 2.65857 15.5607 4.33959 15.6319 8.01022C11.1487 9.07417 15.2284 18.7853 14.3819 19.1577Z" fill="#2F2E41"/>
<path d="M4.21944 8.51157C6.54977 8.51157 8.43888 6.60619 8.43888 4.25578C8.43888 1.90538 6.54977 0 4.21944 0C1.88911 0 0 1.90538 0 4.25578C0 6.60619 1.88911 8.51157 4.21944 8.51157Z" fill="#2F2E41"/>
<path d="M26.4643 21.0291C26.7457 21.0291 26.9737 20.794 26.9737 20.5039C26.9737 20.2138 26.7457 19.9786 26.4643 19.9786C26.183 19.9786 25.9549 20.2138 25.9549 20.5039C25.9549 20.794 26.183 21.0291 26.4643 21.0291Z" fill="#3F3D56"/>
<path d="M28.2241 21.0291C28.5054 21.0291 28.7335 20.794 28.7335 20.5039C28.7335 20.2138 28.5054 19.9786 28.2241 19.9786C27.9428 19.9786 27.7147 20.2138 27.7147 20.5039C27.7147 20.794 27.9428 21.0291 28.2241 21.0291Z" fill="#3F3D56"/>
<path d="M29.9838 21.0291C30.2652 21.0291 30.4932 20.794 30.4932 20.5039C30.4932 20.2138 30.2652 19.9786 29.9838 19.9786C29.7025 19.9786 29.4744 20.2138 29.4744 20.5039C29.4744 20.794 29.7025 21.0291 29.9838 21.0291Z" fill="#3F3D56"/>
<path d="M31.9904 20.919C31.9748 20.919 31.9591 20.9129 31.9474 20.9007L31.6036 20.5463C31.5807 20.5227 31.5807 20.485 31.6036 20.4613L31.9474 20.107C31.9707 20.083 32.0089 20.0826 32.0325 20.106C32.0563 20.1295 32.0567 20.168 32.0335 20.192L31.731 20.5038L32.0335 20.8157C32.0567 20.8397 32.0563 20.8782 32.0325 20.9016C32.0208 20.9132 32.0056 20.919 31.9904 20.919Z" fill="#3F3D56"/>
<path d="M32.568 20.919C32.5528 20.919 32.5376 20.9133 32.5258 20.9017C32.502 20.8782 32.5016 20.8398 32.5249 20.8158L32.8274 20.5039L32.5249 20.192C32.5016 20.168 32.502 20.1296 32.5258 20.1061C32.5496 20.0826 32.5878 20.083 32.611 20.107L32.9547 20.4614C32.9776 20.485 32.9776 20.5227 32.9547 20.5464L32.611 20.9007C32.5992 20.9129 32.5836 20.919 32.568 20.919Z" fill="#3F3D56"/>
<path d="M51.6733 20.0394H51.0342C50.9613 20.0394 50.9023 20.099 50.9023 20.1725V20.8177C50.9023 20.8912 50.9613 20.9508 51.0342 20.9508H51.6733C51.7462 20.9508 51.8058 20.8912 51.8058 20.8177V20.1725C51.8058 20.099 51.7462 20.0394 51.6733 20.0394Z" fill="#3F3D56"/>
<path d="M50.1072 20.0394H49.468C49.3952 20.0394 49.3361 20.099 49.3361 20.1725V20.8177C49.3361 20.8912 49.3952 20.9508 49.468 20.9508H50.1072C50.18 20.9508 50.2397 20.8912 50.2397 20.8177V20.1725C50.2397 20.099 50.18 20.0394 50.1072 20.0394Z" fill="#3F3D56"/>
<path d="M53.1491 20.0698H52.51C52.4371 20.0698 52.3781 20.1294 52.3781 20.2029V20.8481C52.3781 20.9216 52.4371 20.9812 52.51 20.9812H53.1491C53.222 20.9812 53.2816 20.9216 53.2816 20.8481V20.2029C53.2816 20.1294 53.222 20.0698 53.1491 20.0698Z" fill="#3F3D56"/>
<path d="M42.5307 20.3152H36.9016C36.8125 20.3152 36.7408 20.3882 36.7408 20.4775C36.7408 20.5668 36.8125 20.6397 36.9016 20.6397H42.5307C42.6192 20.6397 42.6915 20.5668 42.6915 20.4775C42.6915 20.3882 42.6192 20.3152 42.5307 20.3152Z" fill="#3F3D56"/>
</g>
<defs>
<clipPath id="clip0_27_185">
<rect width="94" height="63" fill="white"/>
</clipPath>
</defs>
</svg>
