<svg width="88" height="67" viewBox="0 0 88 67" fill="none" xmlns="http://www.w3.org/2000/svg">
<g clip-path="url(#clip0_27_235)">
<path d="M87.56 0H40.59C40.347 0 40.15 0.196377 40.15 0.438619V24.1241C40.15 24.3663 40.347 24.5627 40.59 24.5627H87.56C87.803 24.5627 88 24.3663 88 24.1241V0.438619C88 0.196377 87.803 0 87.56 0Z" fill="white"/>
<path d="M40.5419 0.10617C40.4778 0.106372 40.4164 0.131854 40.371 0.177051C40.3257 0.222249 40.3001 0.283492 40.2999 0.347411V24.2846C40.3001 24.3485 40.3257 24.4098 40.371 24.455C40.4164 24.5002 40.4778 24.5257 40.5419 24.5259H87.6769C87.741 24.5257 87.8025 24.5002 87.8478 24.455C87.8931 24.4098 87.9187 24.3485 87.9189 24.2846V0.347959C87.9187 0.28404 87.8931 0.222797 87.8478 0.1776C87.8025 0.132402 87.741 0.106921 87.6769 0.106718H40.5419M40.5419 0.0255737H87.6769C87.7627 0.0255737 87.8449 0.0595392 87.9056 0.119998C87.9662 0.180457 88.0003 0.262457 88.0003 0.347959V24.2846C88.0003 24.3701 87.9662 24.4521 87.9056 24.5126C87.8449 24.573 87.7627 24.607 87.6769 24.607H40.5419C40.4561 24.607 40.3739 24.573 40.3132 24.5126C40.2526 24.4521 40.2185 24.3701 40.2185 24.2846V0.347959C40.2185 0.262457 40.2526 0.180457 40.3132 0.119998C40.3739 0.0595392 40.4561 0.0255737 40.5419 0.0255737Z" fill="#424143"/>
<path d="M40.5419 0.0255737H87.6769C87.7627 0.0255737 87.8449 0.0595392 87.9056 0.119998C87.9662 0.180457 88.0003 0.262457 88.0003 0.347959V2.12108H40.2185V0.347959C40.2185 0.262457 40.2526 0.180457 40.3132 0.119998C40.3739 0.0595392 40.4561 0.0255737 40.5419 0.0255737Z" fill="#424143"/>
<path d="M41.7748 1.36446C41.9823 1.36446 42.1506 1.19675 42.1506 0.989876C42.1506 0.783001 41.9823 0.615295 41.7748 0.615295C41.5673 0.615295 41.399 0.783001 41.399 0.989876C41.399 1.19675 41.5673 1.36446 41.7748 1.36446Z" fill="white"/>
<path d="M43.2011 1.36446C43.4086 1.36446 43.5768 1.19675 43.5768 0.989876C43.5768 0.783001 43.4086 0.615295 43.2011 0.615295C42.9936 0.615295 42.8253 0.783001 42.8253 0.989876C42.8253 1.19675 42.9936 1.36446 43.2011 1.36446Z" fill="white"/>
<path d="M44.6275 1.36446C44.835 1.36446 45.0032 1.19675 45.0032 0.989876C45.0032 0.783001 44.835 0.615295 44.6275 0.615295C44.4199 0.615295 44.2517 0.783001 44.2517 0.989876C44.2517 1.19675 44.4199 1.36446 44.6275 1.36446Z" fill="white"/>
<path d="M86.358 0.489807H84.7159C84.6836 0.489807 84.6527 0.502585 84.6299 0.525329C84.6071 0.548073 84.5942 0.578921 84.5942 0.611086C84.5942 0.643251 84.6071 0.674098 84.6299 0.696842C84.6527 0.719586 84.6836 0.732364 84.7159 0.732364H86.358C86.374 0.732364 86.3898 0.729228 86.4045 0.723133C86.4193 0.717038 86.4327 0.708104 86.444 0.696842C86.4553 0.685581 86.4643 0.672211 86.4704 0.657497C86.4765 0.642783 86.4796 0.627012 86.4796 0.611086C86.4796 0.595159 86.4765 0.579389 86.4704 0.564674C86.4643 0.54996 86.4553 0.536591 86.444 0.525329C86.4327 0.514067 86.4193 0.505135 86.4045 0.49904C86.3898 0.492945 86.374 0.489807 86.358 0.489807Z" fill="white"/>
<path d="M86.358 0.944336H84.7159C84.6836 0.944336 84.6527 0.957114 84.6299 0.979858C84.6071 1.0026 84.5942 1.03345 84.5942 1.06561C84.5942 1.09778 84.6071 1.12863 84.6299 1.15137C84.6527 1.17412 84.6836 1.18689 84.7159 1.18689H86.358C86.374 1.18689 86.3898 1.18376 86.4045 1.17766C86.4193 1.17157 86.4327 1.16263 86.444 1.15137C86.4553 1.14011 86.4643 1.12674 86.4704 1.11203C86.4765 1.09731 86.4796 1.08154 86.4796 1.06561C86.4796 1.04969 86.4765 1.03392 86.4704 1.0192C86.4643 1.00449 86.4553 0.99112 86.444 0.979858C86.4327 0.968596 86.4193 0.959663 86.4045 0.953569C86.3898 0.947474 86.374 0.944336 86.358 0.944336Z" fill="white"/>
<path d="M86.358 1.39941H84.7159C84.6836 1.39941 84.6527 1.41219 84.6299 1.43494C84.6071 1.45768 84.5942 1.48853 84.5942 1.52069C84.5942 1.55286 84.6071 1.58371 84.6299 1.60645C84.6527 1.62919 84.6836 1.64197 84.7159 1.64197H86.358C86.374 1.64197 86.3898 1.63883 86.4045 1.63274C86.4193 1.62664 86.4327 1.61771 86.444 1.60645C86.4553 1.59519 86.4643 1.58182 86.4704 1.5671C86.4765 1.55239 86.4796 1.53662 86.4796 1.52069C86.4796 1.50477 86.4765 1.489 86.4704 1.47428C86.4643 1.45957 86.4553 1.4462 86.444 1.43494C86.4327 1.42367 86.4193 1.41474 86.4045 1.40865C86.3898 1.40255 86.374 1.39941 86.358 1.39941Z" fill="white"/>
<path d="M86.1712 6.5932H73.9282C73.8429 6.59343 73.7612 6.6273 73.7009 6.6874C73.6407 6.7475 73.6067 6.82895 73.6064 6.91394V11.8665C73.6067 11.9515 73.6407 12.0329 73.7009 12.093C73.7612 12.1531 73.8429 12.187 73.9282 12.1872H86.1712C86.2565 12.1872 86.3383 12.1533 86.3986 12.0932C86.4589 12.0331 86.4929 11.9515 86.4929 11.8665V6.91394C86.4929 6.8289 86.4589 6.74737 86.3986 6.68724C86.3383 6.62711 86.2565 6.59329 86.1712 6.5932Z" fill="#E6E6E6"/>
<path d="M85.0055 13.7928H75.0945C75.0433 13.792 74.9924 13.8013 74.9448 13.8202C74.8972 13.8392 74.8538 13.8674 74.8173 13.9032C74.7808 13.939 74.7517 13.9818 74.7319 14.0289C74.7121 14.076 74.7019 14.1266 74.7019 14.1777C74.7019 14.2288 74.7121 14.2793 74.7319 14.3265C74.7517 14.3736 74.7808 14.4163 74.8173 14.4521C74.8538 14.4879 74.8972 14.5161 74.9448 14.5351C74.9924 14.5541 75.0433 14.5634 75.0945 14.5625H85.0055C85.5083 14.5697 85.5035 13.7856 85.0055 13.7928Z" fill="#E6E6E6"/>
<path d="M85.0055 15.5569H75.0945C75.0433 15.5561 74.9924 15.5654 74.9448 15.5843C74.8972 15.6033 74.8538 15.6315 74.8173 15.6673C74.7808 15.7032 74.7517 15.7459 74.7319 15.793C74.7121 15.8401 74.7019 15.8907 74.7019 15.9418C74.7019 15.9929 74.7121 16.0434 74.7319 16.0906C74.7517 16.1377 74.7808 16.1804 74.8173 16.2162C74.8538 16.252 74.8972 16.2802 74.9448 16.2992C74.9924 16.3182 75.0433 16.3275 75.0945 16.3266H85.0055C85.5083 16.3338 85.5035 15.5498 85.0055 15.5569Z" fill="#E6E6E6"/>
<path d="M85.0055 17.3212H75.0945C75.0433 17.3204 74.9924 17.3297 74.9448 17.3486C74.8972 17.3676 74.8538 17.3958 74.8173 17.4316C74.7808 17.4674 74.7517 17.5101 74.7319 17.5573C74.7121 17.6044 74.7019 17.655 74.7019 17.7061C74.7019 17.7571 74.7121 17.8077 74.7319 17.8548C74.7517 17.902 74.7808 17.9447 74.8173 17.9805C74.8538 18.0163 74.8972 18.0445 74.9448 18.0635C74.9924 18.0824 75.0433 18.0917 75.0945 18.0909H85.0055C85.5083 18.0981 85.5035 17.314 85.0055 17.3212Z" fill="#E6E6E6"/>
<path d="M70.0823 6.5932H57.8395C57.7542 6.59343 57.6725 6.6273 57.6122 6.6874C57.5519 6.7475 57.5179 6.82895 57.5177 6.91394V11.8665C57.5179 11.9515 57.5519 12.0329 57.6122 12.093C57.6725 12.1531 57.7542 12.187 57.8395 12.1872H70.0825C70.1678 12.1872 70.2495 12.1533 70.3099 12.0932C70.3702 12.0331 70.4041 11.9515 70.4042 11.8665V6.91394C70.4041 6.82888 70.3702 6.74734 70.3098 6.6872C70.2495 6.62707 70.1677 6.59326 70.0823 6.5932Z" fill="#E6E6E6"/>
<path d="M68.9165 13.7928H59.0055C58.9543 13.792 58.9034 13.8013 58.8558 13.8202C58.8082 13.8392 58.7649 13.8674 58.7283 13.9032C58.6918 13.939 58.6627 13.9818 58.6429 14.0289C58.6231 14.076 58.6129 14.1266 58.6129 14.1777C58.6129 14.2288 58.6231 14.2793 58.6429 14.3265C58.6627 14.3736 58.6918 14.4163 58.7283 14.4521C58.7649 14.4879 58.8082 14.5161 58.8558 14.5351C58.9034 14.5541 58.9543 14.5634 59.0055 14.5625H68.9165C69.4193 14.5697 69.4145 13.7856 68.9165 13.7928Z" fill="#E6E6E6"/>
<path d="M68.9165 15.5569H59.0055C58.9543 15.5561 58.9034 15.5654 58.8558 15.5843C58.8082 15.6033 58.7649 15.6315 58.7283 15.6673C58.6918 15.7032 58.6627 15.7459 58.6429 15.793C58.6231 15.8401 58.6129 15.8907 58.6129 15.9418C58.6129 15.9929 58.6231 16.0434 58.6429 16.0906C58.6627 16.1377 58.6918 16.1804 58.7283 16.2162C58.7649 16.252 58.8082 16.2802 58.8558 16.2992C58.9034 16.3182 58.9543 16.3275 59.0055 16.3266H68.9165C69.4193 16.3338 69.4145 15.5498 68.9165 15.5569Z" fill="#E6E6E6"/>
<path d="M68.9165 17.3212H59.0055C58.9543 17.3204 58.9034 17.3297 58.8558 17.3486C58.8082 17.3676 58.7649 17.3958 58.7283 17.4316C58.6918 17.4674 58.6627 17.5101 58.6429 17.5573C58.6231 17.6044 58.6129 17.655 58.6129 17.7061C58.6129 17.7571 58.6231 17.8077 58.6429 17.8548C58.6627 17.902 58.6918 17.9447 58.7283 17.9805C58.7649 18.0163 58.8082 18.0445 58.8558 18.0635C58.9034 18.0824 58.9543 18.0917 59.0055 18.0909H68.9165C69.4193 18.0981 69.4145 17.314 68.9165 17.3212Z" fill="#E6E6E6"/>
<path d="M53.68 13.1587H34.76C34.3955 13.1587 34.1 13.4533 34.1 13.8166V32.4579C34.1 32.8213 34.3955 33.1159 34.76 33.1159H53.68C54.0445 33.1159 54.34 32.8213 54.34 32.4579V13.8166C54.34 13.4533 54.0445 13.1587 53.68 13.1587Z" fill="white"/>
<path d="M34.5591 13.2433C34.452 13.2434 34.3492 13.2859 34.2734 13.3614C34.1976 13.437 34.155 13.5394 34.1549 13.6462V32.586C34.155 32.6929 34.1976 32.7953 34.2734 32.8709C34.3492 32.9464 34.452 32.9889 34.5591 32.989H53.882C53.9891 32.9889 54.0919 32.9464 54.1677 32.8709C54.2435 32.7953 54.2861 32.6929 54.2862 32.586V13.6462C54.2861 13.5394 54.2435 13.437 54.1677 13.3614C54.0919 13.2859 53.9891 13.2434 53.882 13.2433H34.5591ZM34.5591 13.1627H53.882C54.0106 13.1627 54.134 13.2136 54.225 13.3043C54.3159 13.395 54.3671 13.518 54.3671 13.6462V32.586C54.3671 32.7143 54.3159 32.8373 54.225 32.928C54.134 33.0187 54.0106 33.0696 53.882 33.0696H34.5591C34.4305 33.0696 34.3071 33.0187 34.2161 32.928C34.1251 32.8373 34.074 32.7143 34.074 32.586V13.6462C34.074 13.518 34.1251 13.395 34.2161 13.3043C34.3071 13.2136 34.4305 13.1627 34.5591 13.1627Z" fill="#424143"/>
<path d="M52.0231 15.7883H36.4177C36.3088 15.7885 36.2044 15.8317 36.1274 15.9084C36.0504 15.9852 36.0071 16.0892 36.007 16.1978V22.5092C36.0071 22.6177 36.0504 22.7218 36.1274 22.7986C36.2044 22.8753 36.3088 22.9185 36.4177 22.9186H52.0231C52.1318 22.9183 52.236 22.875 52.3128 22.7983C52.3897 22.7216 52.4328 22.6176 52.4329 22.5092V16.1978C52.4328 16.0894 52.3897 15.9854 52.3128 15.9087C52.236 15.8319 52.1318 15.7886 52.0231 15.7883Z" fill="#67B4E4"/>
<path d="M50.5371 24.9648H37.9036C37.773 24.9648 37.6477 25.0165 37.5554 25.1085C37.4631 25.2006 37.4112 25.3254 37.4112 25.4556C37.4112 25.5858 37.4631 25.7106 37.5554 25.8027C37.6477 25.8947 37.773 25.9464 37.9036 25.9464H50.5371C51.1781 25.9553 51.1718 24.9559 50.5371 24.9648Z" fill="#67B4E4"/>
<path d="M50.5371 27.2134H37.9036C37.773 27.2134 37.6477 27.2651 37.5554 27.3571C37.4631 27.4492 37.4112 27.574 37.4112 27.7042C37.4112 27.8344 37.4631 27.9592 37.5554 28.0513C37.6477 28.1433 37.773 28.195 37.9036 28.195H50.5371C51.1781 28.2039 51.1718 27.2045 50.5371 27.2134Z" fill="#67B4E4"/>
<path d="M50.5371 29.4628H37.9035C37.773 29.4628 37.6479 29.5145 37.5556 29.6065C37.4633 29.6984 37.4115 29.8232 37.4115 29.9533C37.4115 30.0833 37.4633 30.2081 37.5556 30.3001C37.6479 30.392 37.773 30.4437 37.9035 30.4437H50.5371C51.1783 30.4525 51.1718 29.4539 50.5371 29.4628Z" fill="#67B4E4"/>
<path d="M3.52982 33.3532L0.103429 45.0282C-0.00324461 45.3916 -0.0276843 45.7742 0.0318711 46.1482C0.0914264 46.5223 0.233494 46.8785 0.44783 47.1912C0.662167 47.5039 0.943431 47.7652 1.27135 47.9565C1.59927 48.1477 1.96566 48.2641 2.34413 48.2971L6.0827 48.6233L3.52982 33.3532Z" fill="#67B4E4"/>
<path opacity="0.1" d="M3.52982 33.3532L0.103429 45.0282C-0.00324461 45.3916 -0.0276843 45.7742 0.0318711 46.1482C0.0914264 46.5223 0.233494 46.8785 0.44783 47.1912C0.662167 47.5039 0.943431 47.7652 1.27135 47.9565C1.59927 48.1477 1.96566 48.2641 2.34413 48.2971L6.0827 48.6233L3.52982 33.3532Z" fill="#424143"/>
<path d="M34.6269 31.1995L30.0441 38.7547L27.8864 36.0296L32.1035 29.4477C31.9537 28.6821 32.1351 27.7932 32.6712 27.0257C33.6091 25.6826 35.2736 25.2213 36.3886 25.9949C37.5035 26.7686 37.647 28.4848 36.7091 29.8278C36.4707 30.1825 36.1638 30.4864 35.8064 30.7217C35.449 30.957 35.0482 31.1191 34.6274 31.1985L34.6269 31.1995Z" fill="#ED9DA0"/>
<path d="M6.05551 49.5152L5.50551 51.3808L5.52421 53.2728C5.52421 53.2728 1.90367 57.613 3.23764 67L20.198 66.7881L18.1776 51.683L6.05562 49.515L6.05551 49.5152Z" fill="#424143"/>
<path d="M7.96459 23.6588C7.96481 22.7727 8.2114 21.9039 8.67698 21.149C9.14256 20.394 9.80892 19.7825 10.6021 19.3823C11.3952 18.9821 12.2841 18.8088 13.17 18.8817C14.056 18.9547 14.9043 19.2709 15.6209 19.7954C16.3374 20.3199 16.8941 21.0321 17.2292 21.853C17.5642 22.6738 17.6645 23.5711 17.5189 24.4453C17.3733 25.3195 16.9875 26.1364 16.4043 26.8053C15.8212 27.4741 15.0635 27.9688 14.2153 28.2343L13.4982 28.8102L14.7852 33.3019L13.2851 34.3602L8.5455 30.4227C8.5455 30.4227 9.56949 29.1225 10.1185 27.6564C9.45593 27.2196 8.91235 26.6257 8.53644 25.9281C8.16053 25.2305 7.96402 24.4508 7.96448 23.6589L7.96459 23.6588Z" fill="#ED9DA0"/>
<path d="M31.1496 30.9598C29.4518 30.9341 26.3125 36.3664 26.3125 36.3664L23.7337 35.457L18.43 33.5854L14.3656 31.9178L14.3834 32.0403C14.3672 32.0018 14.3504 31.9635 14.3308 31.9239C13.9036 31.0467 12.6623 30.0139 9.13882 30.2182L7.47992 31.524L7.2543 31.7029C6.54257 31.6648 5.8307 31.7753 5.1643 32.0274C4.40959 32.3299 3.65488 32.8937 3.29782 33.9488C3.1128 34.4928 3.1128 35.6177 3.2239 37.0467C3.62529 42.2209 5.49573 53.2208 5.49573 53.2208L17.3062 51.6618L18.1774 51.6821C18.1774 51.6821 18.281 50.4965 18.3734 48.9438C18.4307 48.0331 18.4826 46.9984 18.5121 46.0026C18.5325 45.2724 18.538 44.5643 18.5251 43.9411C18.5233 43.9023 18.5233 43.8637 18.5214 43.8249C18.4862 42.6872 18.3716 41.8629 18.1254 41.7726C18.1254 41.7726 18.8893 41.7523 19.9918 41.7117C22.6555 41.6122 27.2984 41.3893 27.9606 41.0294C28.8966 40.5223 33.804 33.7162 33.804 33.7162C33.804 33.7162 32.8497 30.987 31.1497 30.9596L31.1496 30.9598Z" fill="#67B4E4"/>
<path d="M10.5885 16.7769C10.8457 16.7774 11.1023 16.8028 11.3546 16.8528C11.8106 16.6321 12.3108 16.5173 12.8176 16.5168H12.9504C15.5098 16.5168 17.5845 18.8255 17.5845 21.6733H16.7265L16.5879 20.6225L16.3848 21.6733H15.6704C15.8925 22.5165 16.0039 23.385 16.0018 24.2568V29.5054H14.7053L13.9547 27.5608L14.1425 29.5054H4.35864V25.3839C4.35864 20.6306 7.1478 16.7769 10.5885 16.7769Z" fill="#424143"/>
</g>
<defs>
<clipPath id="clip0_27_235">
<rect width="88" height="67" fill="white"/>
</clipPath>
</defs>
</svg>
